<svg width="14" height="14" viewBox="0 0 14 14" fill="none" xmlns="http://www.w3.org/2000/svg">
<path d="M7.99949 8.7066L13.1464 13.8536C13.3417 14.0488 13.6583 14.0488 13.8536 13.8536C14.0488 13.6583 14.0488 13.3417 13.8536 13.1464L0.853549 0.146449C0.658289 -0.0488165 0.341709 -0.0488165 0.146449 0.146449C-0.0488165 0.341709 -0.0488165 0.658289 0.146449 0.853549L3.28561 3.99272H2.49951C1.67108 3.99272 0.99951 4.66429 0.99951 5.49272V8.48171C0.99951 9.3101 1.67108 9.9817 2.49951 9.9817H4.22265L7.14909 12.8567C7.29277 12.9978 7.50713 13.039 7.69288 12.9611C7.87862 12.8832 7.99949 12.7014 7.99949 12.5V8.7066Z" fill="#505050"/>
<path d="M10.709 8.58769L9.91406 7.79281C9.96906 7.56066 10.0039 7.29632 10.0039 6.99855C10.0039 6.25106 9.78506 5.71521 9.57576 5.3709C9.47026 5.19744 9.36626 5.07121 9.29196 4.99105C9.25486 4.95104 9.22546 4.92277 9.20726 4.90612C9.19816 4.8978 9.19196 4.89242 9.18906 4.88995L9.19006 4.89071C8.97433 4.71872 8.93901 4.40471 9.11086 4.18874C9.28276 3.97264 9.59726 3.93681 9.81336 4.10873L9.81426 4.1094L9.81516 4.11015L9.81736 4.11188L9.82266 4.11627L9.83766 4.12881C9.84946 4.13884 9.86476 4.15224 9.88306 4.16904C9.91966 4.20261 9.96846 4.2499 10.0253 4.31118C10.1388 4.43361 10.2853 4.61296 10.4303 4.85142C10.7218 5.33096 11.0039 6.04438 11.0039 6.99855C11.0039 7.63415 10.8787 8.16327 10.709 8.58769Z" fill="#505050"/>
<path d="M12.2257 10.1046L11.4812 9.36001C11.7759 8.73182 12.0027 7.94357 12.0027 7.00405C12.0027 5.66848 11.5444 4.63643 11.0839 3.9351C10.8535 3.58412 10.6237 3.31793 10.4536 3.14133C10.3687 3.05318 10.2992 2.98782 10.2525 2.94583C10.2292 2.92485 10.2117 2.90975 10.2009 2.90061L10.1898 2.89139C9.97411 2.71933 9.93791 2.40451 10.1099 2.18859C10.2819 1.97255 10.5964 1.93686 10.8125 2.10887L10.8142 2.11025L10.8166 2.11223L10.8237 2.11798L10.8461 2.13666C10.8646 2.15228 10.8901 2.17427 10.9215 2.20255C10.9843 2.25909 11.0712 2.34097 11.174 2.44771C11.3792 2.66089 11.6498 2.97503 11.9198 3.38627C12.4602 4.20938 13.0027 5.42935 13.0027 7.00405C13.0027 8.27809 12.6476 9.31872 12.2257 10.1046Z" fill="#505050"/>
<path d="M7.99957 5.87828L5.1814 3.06011L7.15069 1.14186C7.29469 1.00158 7.50871 0.961187 7.69394 1.03934C7.87916 1.1175 7.99957 1.29898 7.99957 1.50002V5.87828Z" fill="#505050"/>
</svg>
