<svg width="14" height="14" viewBox="0 0 14 14" fill="none" xmlns="http://www.w3.org/2000/svg">
<path d="M7.69435 1.03934C7.85311 1.10633 7.96425 1.24923 7.99277 1.41529L7.99998 1.5V12.5C7.99998 12.7014 7.87912 12.8832 7.69337 12.9611C7.53416 13.0279 7.35392 13.0071 7.21519 12.911L7.14958 12.8567L4.22315 9.9817H2.5C1.72031 9.9817 1.07955 9.38679 1.00687 8.62617L1 8.48172V5.49273C1 4.71304 1.59489 4.07228 2.35554 3.9996L2.5 3.99273H4.22439L7.1511 1.14185C7.29511 1.00157 7.50912 0.96119 7.69435 1.03934ZM10.7377 2.05918L10.8243 2.11798L10.9221 2.20255C10.985 2.25908 11.0718 2.34097 11.1746 2.4477C11.3799 2.66089 11.6505 2.97503 11.9205 3.38627C12.4609 4.20938 13.0033 5.42934 13.0033 7.00405C13.0033 8.57884 12.4608 9.797 11.9201 10.6183C11.65 11.0286 11.3793 11.3418 11.1739 11.5543L11.0326 11.6952L10.8459 11.8642L10.8129 11.8913C10.5964 12.0628 10.2812 12.0269 10.1097 11.8105C9.95758 11.6185 9.96913 11.3493 10.1248 11.1713L10.254 11.0538C10.3006 11.0121 10.3701 10.947 10.4549 10.8593C10.6248 10.6835 10.8545 10.4184 11.0849 10.0685C11.545 9.3694 12.0033 8.33953 12.0033 7.00405C12.0033 5.66847 11.545 4.63643 11.0845 3.93509C10.8925 3.64261 10.7009 3.40901 10.5439 3.23707L10.3747 3.0608L10.1904 2.89138C9.97467 2.71932 9.93857 2.40451 10.1105 2.18858C10.2634 1.99655 10.5288 1.94702 10.7377 2.05918ZM9.73849 4.05908L9.83807 4.12882L9.97172 4.25456L10.0258 4.31119C10.1393 4.43362 10.2857 4.61296 10.4307 4.85143C10.7222 5.33096 11.0043 6.04439 11.0043 6.99855C11.0043 7.95268 10.7222 8.66687 10.4309 9.1471C10.2861 9.3859 10.1397 9.5657 10.0263 9.6884L9.92471 9.79267L9.85442 9.85769L9.81467 9.8914L9.75119 9.92021C9.6188 9.97324 9.3092 10.0597 9.11197 9.8129C8.95949 9.62214 8.96933 9.35404 9.12289 9.17531L9.25734 9.04607L9.29177 9.0098C9.36627 8.92923 9.47037 8.80248 9.57587 8.62847C9.78547 8.28301 10.0043 7.74609 10.0043 6.99855C10.0043 6.25106 9.78547 5.71522 9.57617 5.3709C9.49704 5.2408 9.41876 5.13728 9.35322 5.05983L9.25797 4.95495L9.18947 4.88995C8.97476 4.71873 8.93945 4.40472 9.11127 4.18874C9.26407 3.99665 9.52954 3.947 9.73849 4.05908Z" fill="#505050"/>
</svg>
